<svg width="20" height="19" viewBox="0 0 20 19" fill="none" xmlns="http://www.w3.org/2000/svg">
<g clip-path="url(#clip0_241_1394)">
<path d="M3.91971 5.15741H17.6168V3.65186H3.91971C3.08267 3.65186 2.39781 4.32936 2.39781 5.15741V13.438H0.875916V15.6963H11.5292V13.438H3.91971V5.15741ZM18.3777 6.66297H13.812C13.3935 6.66297 13.0511 7.00172 13.0511 7.41574V14.9435C13.0511 15.3576 13.3935 15.6963 13.812 15.6963H18.3777C18.7963 15.6963 19.1387 15.3576 19.1387 14.9435V7.41574C19.1387 7.00172 18.7963 6.66297 18.3777 6.66297ZM17.6168 13.438H14.573V8.16852H17.6168V13.438Z" fill="#34383B"/>
</g>
<defs>
<clipPath id="clip0_241_1394">
<rect width="18.2628" height="18.0667" fill="white" transform="translate(0.875916 0.640747)"/>
</clipPath>
</defs>
</svg>
