<svg width="20" height="19" viewBox="0 0 20 19" fill="none" xmlns="http://www.w3.org/2000/svg">
<g clip-path="url(#clip0_241_1411)">
<path d="M15.4551 9.96316C15.4855 9.73733 15.5007 9.50397 15.5007 9.25555C15.5007 9.01466 15.4855 8.77377 15.4474 8.54794L16.9922 7.35855C17.1291 7.25316 17.1672 7.04991 17.0835 6.89936L15.6225 4.40014C15.5312 4.23452 15.3409 4.18183 15.1735 4.23452L13.3548 4.95719C12.9744 4.67114 12.5711 4.43025 12.1221 4.24958L11.8482 2.33752C11.8177 2.15686 11.6655 2.02888 11.4829 2.02888H8.56086C8.37823 2.02888 8.23365 2.15686 8.20321 2.33752L7.92927 4.24958C7.48031 4.43025 7.0694 4.67866 6.69653 4.95719L4.87786 4.23452C4.71046 4.1743 4.52022 4.23452 4.4289 4.40014L2.97549 6.89936C2.88418 7.05744 2.91462 7.25316 3.06681 7.35855L4.61153 8.54794C4.57348 8.77377 4.54305 9.02219 4.54305 9.25555C4.54305 9.48891 4.55827 9.73733 4.59631 9.96316L3.05159 11.1526C2.91462 11.2579 2.87657 11.4612 2.96027 11.6117L4.4213 14.111C4.51261 14.2766 4.70285 14.3293 4.87026 14.2766L6.68892 13.5539C7.0694 13.84 7.4727 14.0809 7.92166 14.2615L8.1956 16.1736C8.23365 16.3542 8.37823 16.4822 8.56086 16.4822H11.4829C11.6655 16.4822 11.8177 16.3542 11.8405 16.1736L12.1145 14.2615C12.5635 14.0809 12.9744 13.84 13.3472 13.5539L15.1659 14.2766C15.3333 14.3368 15.5235 14.2766 15.6149 14.111L17.0759 11.6117C17.1672 11.4461 17.1291 11.2579 16.9846 11.1526L15.4551 9.96316ZM10.0219 11.9656C8.5152 11.9656 7.28246 10.7461 7.28246 9.25555C7.28246 7.76505 8.5152 6.54555 10.0219 6.54555C11.5286 6.54555 12.7613 7.76505 12.7613 9.25555C12.7613 10.7461 11.5286 11.9656 10.0219 11.9656Z" fill="#34383B"/>
</g>
<defs>
<clipPath id="clip0_241_1411">
<rect width="18.2628" height="18.0667" fill="white" transform="translate(0.890503 0.222221)"/>
</clipPath>
</defs>
</svg>
